<?xml version="1.0" standalone="no"?><!DOCTYPE svg PUBLIC "-//W3C//DTD SVG 1.1//EN" "http://www.w3.org/Graphics/SVG/1.1/DTD/svg11.dtd"><svg t="1526110488857" class="icon" style="" viewBox="0 0 1024 1024" version="1.1" xmlns="http://www.w3.org/2000/svg" p-id="4378" xmlns:xlink="http://www.w3.org/1999/xlink" width="200" height="200"><defs><style type="text/css"></style></defs><path d="M951.5 877.5h-879C32.5 877.5 0 845 0 805V219c0-40 32.5-72.5 72.5-72.5h878.9c40 0 72.5 32.5 72.5 72.5v586c0.1 40-32.4 72.5-72.4 72.5z m-879-682.3c-13.1 0-23.8 10.7-23.8 23.8v586c0 13.1 10.7 23.8 23.8 23.8h878.9c13.1 0 23.8-10.7 23.8-23.8V219c0-13.1-10.7-23.8-23.8-23.8H72.5z" fill="#000000" p-id="4379"></path><path d="M291.4 465.3c-47.9 0-86.9-39-86.9-86.9s39-86.9 86.9-86.9 86.9 39 86.9 86.9-39.1 86.9-86.9 86.9z m0-154.2c-37.1 0-67.4 30.2-67.4 67.4 0 37.1 30.2 67.4 67.4 67.4s67.4-30.2 67.4-67.4c-0.1-37.2-30.3-67.4-67.4-67.4z" fill="#000000" p-id="4380"></path><path d="M426.5 612.6c-5.4 0-9.8-4.4-9.8-9.8 0-69.1-56.2-125.4-125.4-125.4S166 533.7 166 602.8c0 5.4-4.4 9.8-9.8 9.8s-9.8-4.4-9.8-9.8c0-79.9 65-144.9 144.9-144.9s144.9 65 144.9 144.9c0 5.4-4.3 9.8-9.7 9.8zM750.7 327.7H550.8c-5.4 0-9.8-4.4-9.8-9.8s4.4-9.8 9.8-9.8h199.9c5.4 0 9.8 4.4 9.8 9.8s-4.4 9.8-9.8 9.8zM653.2 391.1H550.8c-5.4 0-9.8-4.4-9.8-9.8s4.4-9.8 9.8-9.8h102.4c5.4 0 9.8 4.4 9.8 9.8s-4.4 9.8-9.8 9.8zM848.3 561.8H550.8c-5.4 0-9.8-4.4-9.8-9.8s4.4-9.8 9.8-9.8h297.4c5.4 0 9.8 4.4 9.8 9.8s-4.3 9.8-9.7 9.8zM848.3 634.9H550.8c-5.4 0-9.8-4.4-9.8-9.8s4.4-9.8 9.8-9.8h297.4c5.4 0 9.8 4.4 9.8 9.8 0 5.5-4.3 9.8-9.7 9.8z" fill="#000000" p-id="4381"></path><path d="M750.7 708.1H550.8c-5.4 0-9.8-4.4-9.8-9.8s4.4-9.8 9.8-9.8h199.9c5.4 0 9.8 4.4 9.8 9.8s-4.4 9.8-9.8 9.8z" fill="#000000" p-id="4382"></path></svg>