<?xml version="1.0" standalone="no"?><!DOCTYPE svg PUBLIC "-//W3C//DTD SVG 1.1//EN" "http://www.w3.org/Graphics/SVG/1.1/DTD/svg11.dtd"><svg t="1526113041670" class="icon" style="" viewBox="0 0 1024 1024" version="1.1" xmlns="http://www.w3.org/2000/svg" p-id="6062" xmlns:xlink="http://www.w3.org/1999/xlink" width="200" height="200"><defs><style type="text/css"></style></defs><path d="M510.293333 162.986667C317.44 162.986667 162.133333 318.293333 162.133333 511.146667s155.306667 348.16 348.16 348.16 348.16-155.306667 348.16-348.16c2.730667-192.853333-155.306667-348.16-348.16-348.16z m0 656.213333C341.589333 819.2 202.24 682.581333 202.24 511.232c2.645333-168.704 139.264-305.322667 308.053333-305.322667s308.053333 136.533333 308.053334 305.237334c0 171.434667-136.618667 308.053333-308.053334 308.053333z" p-id="6063" fill="#ffffff"></path><path d="M636.416 598.016l76.629333-76.629333H569.856c-8.021333 0-14.592-6.570667-14.592-14.592 0-8.106667 6.570667-14.592 14.592-14.592h143.189333L636.416 415.573333c-5.717333-5.717333-5.717333-14.933333 0-20.650666 5.717333-5.717333 14.933333-5.717333 20.650667 0L757.930667 495.786667c3.072 3.072 4.352 7.082667 4.181333 11.093333 0.170667 4.010667-1.109333 8.021333-4.181333 11.093333L657.066667 618.666667c-5.717333 5.717333-14.933333 5.717333-20.650667 0-5.717333-5.717333-5.717333-14.933333 0-20.650667M663.125333 631.466667zM424.874667 505.088c45.482667 0 82.346667-36.181333 82.346666-80.810667 0-44.629333-36.864-80.810667-82.346666-80.810666s-82.346667 36.181333-82.346667 80.810666c0 44.629333 36.864 80.810667 82.346667 80.810667m2.048 7.594667c-63.658667 0-144.128 39.936-144.128 135.338666v13.824h288.256v-13.824c0-97.109333-80.469333-135.338667-144.128-135.338666m0 0z" p-id="6064" fill="#ffffff"></path></svg>
