<?xml version="1.0" standalone="no"?><!DOCTYPE svg PUBLIC "-//W3C//DTD SVG 1.1//EN" "http://www.w3.org/Graphics/SVG/1.1/DTD/svg11.dtd"><svg t="1511769679840" class="icon" style="" viewBox="0 0 1024 1024" version="1.1" xmlns="http://www.w3.org/2000/svg" p-id="1847" xmlns:xlink="http://www.w3.org/1999/xlink" width="200" height="200"><defs><style type="text/css"></style></defs><path d="M512.037161 0C229.213654 0 0 229.238612 0 511.981417 0 794.762452 229.213654 1024 512.037161 1024 794.714146 1024 1024 794.761387 1024 511.981417 1024 229.273653 794.710965 0 512.037161 0L512.037161 0ZM552.264724 793.438304 552.264724 795.37621C552.264724 803.494168 550.725188 812.198277 547.731054 821.417383 544.696574 830.672602 540.089643 837.911334 533.908138 843.3226 527.690534 848.69776 519.828279 850.928742 510.428611 850.124909 500.920644 849.280724 490.021786 843.028466 477.591886 831.399977 455.725156 811.688578 432.576895 791.09477 408.073841 769.664205 383.647234 748.159317 360.901375 728.446853 339.908465 710.414261 315.443635 689.823635 290.980928 669.451756 266.551135 649.302867 261.83272 649.740356 257.117491 649.961224 252.362977 649.961224 248.52263 650.398712 244.427462 650.580291 240.184711 650.580291L229.214716 650.580291C217.623597 650.580291 208.188892 647.067641 200.94776 640.013672 193.632307 632.917228 189.977765 624.432926 189.977765 614.594746L189.977765 452.393798 190.596766 452.393798 189.977765 451.735442C189.977765 439.741676 193.745915 429.866331 201.241866 422.151882 208.73994 414.401329 218.100323 410.559501 229.217901 410.559501L265.897097 410.559501C305.352768 377.096948 341.193183 347.033425 373.372684 320.446448 387.088364 308.886985 400.580014 297.623783 413.887982 286.653654 427.161973 275.718569 439.15868 265.733851 449.87067 256.735607 460.584783 247.738425 469.655309 240.20343 476.966515 234.170975 484.206585 228.172499 488.704156 224.552601 490.459227 223.268807 503.295778 213.834136 513.713663 209.517654 521.687402 210.396878 529.622917 211.241061 535.803361 215.075456 540.33703 221.956341 544.836725 228.831917 547.942342 237.205785 549.662376 247.080068 551.41851 256.955413 552.259415 265.988699 552.259415 274.107719L552.259415 793.440427 552.264724 793.438304ZM640.065032 626.119167C634.690456 620.559242 631.981934 613.868431 631.981934 606.185837 631.981934 602.712476 632.677379 599.310261 633.919627 595.909107L633.261342 595.909107C635.455978 591.120095 637.979757 586.653891 641.011051 582.339533 644.007308 578.063403 646.862352 573.709756 649.639889 569.172407 652.458833 564.638243 654.833967 559.481827 656.769536 553.738198 658.707229 547.924488 659.622457 540.937415 659.622457 532.818395 659.622457 525.102883 658.708291 518.335618 656.769536 512.521907 654.795744 506.780402 652.455648 501.515676 649.639889 496.756396 646.859167 492.037468 644.009431 487.578697 641.011051 483.22505 637.976571 478.980775 635.636475 474.447673 633.91538 469.730869 632.671009 466.769327 631.977686 463.294905 631.977686 459.454139 631.977686 451.738627 634.647986 445.082857 640.060785 439.520808 645.400323 433.920532 651.944946 431.144817 659.659618 431.144817 665.692478 431.144817 670.593513 432.973349 674.468899 436.633597 678.309247 440.288537 681.966974 444.462729 685.402795 449.17741 694.434038 461.611849 701.565809 474.191764 706.976481 486.810968 712.31602 499.465214 715.022418 514.79005 715.022418 532.820519 715.022418 550.012114 712.241698 565.444198 706.64734 579.193227 701.088017 592.9104 693.994469 605.342716 685.399607 616.536898 681.961665 621.255825 678.344285 625.423646 674.465714 629.080709 670.589267 632.735648 665.689293 634.56949 659.656433 634.56949 651.941762 634.534448 645.392891 631.68334 640.0576 626.12023L640.065032 626.119167ZM825.687504 594.594518C820.128181 614.305919 812.268052 632.95864 802.175058 650.549496 792.08207 668.140353 780.160744 684.379457 766.485415 699.153183 752.735758 713.96408 737.741735 726.948564 721.431136 738.104518 716.274224 741.910241 710.279584 743.846025 703.439797 743.846025 694.881034 743.846025 687.458345 740.740069 681.241799 734.519658 675.024194 728.265277 671.880354 720.911858 671.880354 712.319249 671.880354 702.884577 675.573119 694.948195 682.850352 688.546215 683.287791 688.108728 683.728418 687.778488 684.094717 687.595841 684.532163 687.340995 684.97279 687.047919 685.410229 686.645473L686.02923 685.987116C698.062036 677.795892 709.211464 668.176456 719.527424 657.022626 729.840196 645.832692 738.799234 633.727431 746.552129 620.667552 754.230702 607.607674 760.26781 593.639901 764.578516 578.82476 768.85418 564.013866 770.978741 548.691154 770.978741 532.779106 770.978741 500.631142 762.822376 471.191995 746.552129 444.602894 730.281882 418.013794 709.872934 396.144683 685.409164 378.992377 676.412962 372.556413 671.879292 363.996719 671.879292 353.24215 671.879292 344.647414 675.025256 337.222854 681.240737 331.041737 687.494444 324.787352 694.881034 321.715377 703.438732 321.715377 710.719147 321.715377 717.115126 324.056789 722.748771 328.77147 738.621925 339.924238 753.357947 352.91191 767.107598 367.722803 780.823279 382.533697 792.634177 398.589097 802.505264 416.000498 812.379532 433.371548 820.09527 451.914897 825.687504 471.629484 831.246821 491.379112 834.062582 511.787096 834.062582 532.779106 834.062582 554.247894 831.243639 574.839581 825.687504 594.588147L825.687504 594.594518Z" p-id="1848"></path></svg>