<?xml version="1.0" standalone="no"?><!DOCTYPE svg PUBLIC "-//W3C//DTD SVG 1.1//EN" "http://www.w3.org/Graphics/SVG/1.1/DTD/svg11.dtd"><svg t="1526624540340" class="icon" style="" viewBox="0 0 1024 1024" version="1.1" xmlns="http://www.w3.org/2000/svg" p-id="2663" xmlns:xlink="http://www.w3.org/1999/xlink" width="200" height="200"><defs><style type="text/css"></style></defs><path d="M536.172 293.916h34.934v34.934h-34.934zM713.047 293.916h34.934v34.934h-34.934zM626.212 432.907c14.127 1.201 31.603 2.749 48.26 7.3v-78.115h-64.426v69.541l16.165 1.275z" p-id="2664" fill="#108ee9"></path><path d="M818.051 427.136v-154.756h25.122l-26.196-158.997h-349.417l-26.196 158.997h25.122v141.83c15.001 3.514 31.567 6.881 50.226 9.248l2.185 0.255v-151.315h246.762v169.994c16.894-4.97 35.007-10.23 52.393-15.255z" p-id="2665" fill="#108ee9"></path><path d="M292.124 768.574l-23.884-22.173c60.293-41.269 124.209-47.313 180.023-49.334 11.123-0.419 119.385-0.419 219.363 11.615 20.080 1.383 37.301-9.393 37.301-9.393 149.986-95.883 277.891-148.402 277.891-148.402 30.347-11.414 39.267-25.013 38.812-35.462-0.892-18.988-11.615-25.504-11.724-25.632-10.322-11.706-39.595-15.401-63.115-11.814-11.687 1.803-182.609 52.156-182.609 52.156 4.861 15.237 12.852 43.018-16.093 71.507-19.77 17.258-50.208 22.41-89.748 21.627-39.486-0.747-82.247-6.935-115.216-11.031-10.704-1.311-40.414-5.243-40.414-5.243s20.917-9.648 49.261-10.613c35.39-1.183 63.261-0.928 79.298 0 17.585 1.002 42.817 3.204 53.412 3.586 48.242 1.803 59.729-29.182 59.966-41.47 0.601-34.788-19.060-46.331-80.045-51.409-39.213-3.277-81.338-5.881-110.665-9.575-56.561-7.154-97.23-23.084-117.947-25.068-14.254-1.365-51.228-8.283-86.362 20.789-64.516 53.375-160.509 94.627-226.208 118.911l-26.997-25.050-78.553 77.77 192.33 179.369 81.92-75.658zM187.448 764.587c0-10.054 8.15-18.205 18.205-18.205s18.205 8.15 18.205 18.205c0 10.054-8.15 18.205-18.205 18.205-10.054 0-18.205-8.15-18.205-18.205z" p-id="2666" fill="#108ee9"></path></svg>