<?xml version="1.0" standalone="no"?><!DOCTYPE svg PUBLIC "-//W3C//DTD SVG 1.1//EN" "http://www.w3.org/Graphics/SVG/1.1/DTD/svg11.dtd"><svg t="1526010134701" class="icon" style="" viewBox="0 0 1024 1024" version="1.1" xmlns="http://www.w3.org/2000/svg" p-id="4509" xmlns:xlink="http://www.w3.org/1999/xlink" width="200" height="200"><defs><style type="text/css"></style></defs><path d="M983.9104 226.816c-27.136-27.1872-59.2896-39.5264-96.3584-39.5264h-118.6304l-27.136-71.68a105.7792 105.7792 0 0 0-37.12-44.4928c-17.2544-12.288-37.0688-19.7632-54.3232-19.7632h-271.872c-19.712 0-37.0176 7.424-54.3232 19.7632-17.3056 12.3904-29.696 27.1872-37.0688 44.544l-29.696 71.6288H136.3968c-37.0688 0-69.1712 12.3392-96.3584 39.5264C12.8 253.952 0.4608 286.1056 0.4608 323.1744v476.928c0 37.0688 12.3392 69.1712 39.5264 96.3584 27.136 27.136 59.2896 39.5264 96.3584 39.5264h751.2064c37.0688 0 69.1712-12.3392 96.3584-39.5264 27.136-27.1872 39.5264-59.2896 39.5264-96.3584V323.1744c0-37.0688-12.3392-69.1712-39.5264-96.3584zM511.9488 777.8304A225.6896 225.6896 0 0 1 287.0784 552.96 225.6896 225.6896 0 0 1 512 328.192 225.6896 225.6896 0 0 1 736.768 552.96a225.6896 225.6896 0 0 1-224.8704 224.8704z m0-373.0944a149.76 149.76 0 0 0-150.7328 150.7328 149.76 149.76 0 0 0 150.7328 150.7328 149.76 149.76 0 0 0 150.7328-150.7328 149.76 149.76 0 0 0-150.7328-150.7328z" p-id="4510" fill="#8a8a8a"></path></svg>