<?xml version="1.0" standalone="no"?><!DOCTYPE svg PUBLIC "-//W3C//DTD SVG 1.1//EN" "http://www.w3.org/Graphics/SVG/1.1/DTD/svg11.dtd"><svg t="1515546540348" class="icon" style="" viewBox="0 0 1024 1024" version="1.1" xmlns="http://www.w3.org/2000/svg" p-id="4730" xmlns:xlink="http://www.w3.org/1999/xlink" width="32" height="32"><defs><style type="text/css"></style></defs><path d="M512.1806 957.178131c-246.337919 0-446.803527-200.465608-446.803527-446.803527S265.842681 63.571076 512.1806 63.571076s446.803527 200.465608 446.803527 446.803527c0 88.855026-26.006349 174.459259-75.129453 248.143915-8.307584 12.280776-25.283951 15.892769-37.564727 7.585185-12.280776-8.307584-15.892769-25.283951-7.585185-37.564727 43.343915-64.654674 66.099471-139.784127 66.099471-218.164374 0-216.358377-175.904056-392.623633-392.623633-392.623633-216.358377 0-392.623633 175.904056-392.623633 392.623633 0 216.358377 175.904056 392.623633 392.623633 392.623633 85.243034 0 166.151675-26.728748 234.057143-77.296649 11.919577-9.029982 28.895944-6.501587 37.925926 5.417989s6.501587 28.895944-5.417989 37.925926C701.087831 926.47619 608.982011 957.178131 512.1806 957.178131z" p-id="4731"></path><path d="M784.524868 537.46455 239.475132 537.46455c-14.809171 0-27.089947-12.280776-27.089947-27.089947s12.280776-27.089947 27.089947-27.089947l545.049735 0c14.809171 0 27.089947 12.280776 27.089947 27.089947S799.695238 537.46455 784.524868 537.46455z" p-id="4732"></path></svg>