<?xml version="1.0" standalone="no"?><!DOCTYPE svg PUBLIC "-//W3C//DTD SVG 1.1//EN" "http://www.w3.org/Graphics/SVG/1.1/DTD/svg11.dtd"><svg t="1511941843683" class="icon" style="" viewBox="0 0 1024 1024" version="1.1" xmlns="http://www.w3.org/2000/svg" p-id="1724" xmlns:xlink="http://www.w3.org/1999/xlink" width="200" height="200"><defs><style type="text/css"></style></defs><path d="M787.456 265.216 236.544 265.216c-39.936 0-71.68-31.744-71.68-71.68l0-48.128c0-39.936 31.744-71.68 71.68-71.68l550.912 0c39.936 0 71.68 31.744 71.68 71.68l0 48.128C859.136 232.448 827.392 265.216 787.456 265.216z" p-id="1725"></path><path d="M216.064 334.848l591.872 0c28.672 0 51.2 22.528 51.2 51.2l0 564.224L512 747.52 164.864 950.272 164.864 386.048C164.864 357.376 188.416 334.848 216.064 334.848z" p-id="1726"></path></svg>