<?xml version="1.0" standalone="no"?><!DOCTYPE svg PUBLIC "-//W3C//DTD SVG 1.1//EN" "http://www.w3.org/Graphics/SVG/1.1/DTD/svg11.dtd"><svg t="1513414132257" class="icon" style="" viewBox="0 0 1024 1024" version="1.1" xmlns="http://www.w3.org/2000/svg" p-id="4436" xmlns:xlink="http://www.w3.org/1999/xlink" width="32" height="32"><defs><style type="text/css"></style></defs><path d="M633.105386 978.435597H140.690086c-25.580016 0-47.962529-9.592506-67.147541-28.777517-19.185012-19.185012-28.777518-41.567525-28.777518-67.147541V140.690086c0-25.580016 9.592506-47.962529 28.777518-67.147541 19.185012-19.185012 41.567525-28.777518 67.147541-28.777518h604.327869c25.580016 0 47.962529 9.592506 67.147541 28.777518 19.185012 19.185012 28.777518 41.567525 28.777517 67.147541v207.837627c0 12.790008 9.592506 22.382514 22.382514 22.382513 12.790008 0 22.382514-9.592506 22.382514-22.382513V140.690086c0-76.740047-63.950039-140.690086-140.690086-140.690086H140.690086C63.950039 0 0 63.950039 0 140.690086v745.017955C0 959.250585 63.950039 1023.200625 140.690086 1023.200625h492.4153c9.592506-3.197502 19.185012-12.790008 19.185012-22.382514 0-12.790008-9.592506-22.382514-19.185012-22.382514z" fill="" p-id="4437"></path><path d="M719.437939 191.850117c0-12.790008-9.592506-22.382514-22.382514-22.382514h-511.600312c-12.790008 0-22.382514 9.592506-22.382513 22.382514 0 12.790008 9.592506 22.382514 22.382513 22.382514h511.600312c12.790008 0 22.382514-9.592506 22.382514-22.382514zM185.455113 856.930523h140.690086c12.790008 0 22.382514-9.592506 22.382514-22.382514 0-12.790008-9.592506-22.382514-22.382514-22.382513H185.455113c-12.790008 0-22.382514 9.592506-22.382513 22.382513 0 12.790008 9.592506 22.382514 22.382513 22.382514zM185.455113 537.180328h92.727557c12.790008 0 22.382514-9.592506 22.382513-22.382514 0-12.790008-9.592506-22.382514-22.382513-22.382513H185.455113c-12.790008 0-22.382514 9.592506-22.382513 22.382513 0 9.592506 9.592506 22.382514 22.382513 22.382514zM1016.805621 984.830601l-172.665106-172.665105c38.370023-47.962529 63.950039-105.517564 63.950039-172.665106 0-147.08509-118.307572-268.590164-268.590164-268.590164-147.08509 0-268.590164 118.307572-268.590164 268.590164s118.307572 268.590164 268.590164 268.590164c67.147541 0 124.702576-22.382514 172.665106-63.950039l172.665105 172.665106c9.592506 9.592506 22.382514 9.592506 31.97502 0 9.592506-9.592506 9.592506-25.580016 0-31.97502zM639.50039 860.128025c-121.505074 0-220.627635-99.12256-220.627634-220.627635s99.12256-220.627635 220.627634-220.627634 220.627635 99.12256 220.627635 220.627634-99.12256 220.627635-220.627635 220.627635z" fill="" p-id="4438"></path></svg>