<?xml version="1.0" standalone="no"?><!DOCTYPE svg PUBLIC "-//W3C//DTD SVG 1.1//EN" "http://www.w3.org/Graphics/SVG/1.1/DTD/svg11.dtd"><svg t="1513413616648" class="icon" style="" viewBox="0 0 1024 1024" version="1.1" xmlns="http://www.w3.org/2000/svg" p-id="3196" xmlns:xlink="http://www.w3.org/1999/xlink" width="32" height="32"><defs><style type="text/css"></style></defs><path d="M956.994 140.217c-4.703-8.241-14.636-11.923-23.579-8.736L77.443 436.66a19.578 19.578 0 0 0-4.88 34.32L271.5 614.49a19.688 19.688 0 0 0-0.392 3.911v244.851a19.578 19.578 0 0 0 34.618 12.534L429.148 727.7l227.799 162.324a19.58 19.58 0 0 0 29.674-9.017l271.68-718.262a19.523 19.523 0 0 0 1.03-9.89 19.518 19.518 0 0 0-2.337-12.638z m-114.027 65.082L526.09 469.401 343.989 618.498 125.697 461.027l717.27-255.728zM310.266 809.18V642.453l20.341 14.673a19.622 19.622 0 0 0 2.559 2.179l64.002 45.607-86.902 104.268z m348.718 34.214L378.407 643.461l172.662-143.905 344.733-282.254-236.818 626.092z" p-id="3197"></path></svg>