<?xml version="1.0" standalone="no"?><!DOCTYPE svg PUBLIC "-//W3C//DTD SVG 1.1//EN" "http://www.w3.org/Graphics/SVG/1.1/DTD/svg11.dtd"><svg t="1511946869170" class="icon" style="" viewBox="0 0 1024 1024" version="1.1" xmlns="http://www.w3.org/2000/svg" p-id="3937" xmlns:xlink="http://www.w3.org/1999/xlink" width="200" height="200"><defs><style type="text/css"></style></defs><path d="M513.65 149.062c-281.84 0-510.322 355.97-510.322 355.97s228.482 355.97 510.321 355.97c290.086 7.488 510.33-355.97 510.33-355.97s-228.482-355.97-510.33-355.97z m-0.73 640.305c-240.29 0-435.165-285.049-435.165-285.049S272.63 219.233 512.92 219.233c240.328 0 435.128 285.085 435.128 285.085s-194.799 285.05-435.128 285.05z m-2.261-463.427c-100.676 0-182.257 80.161-182.257 179.092 0 98.936 81.582 179.102 182.257 179.102 100.645 0 182.22-80.167 182.22-179.102 0-98.93-81.576-179.092-182.22-179.092z m0 286.548c-60.36 0-109.35-48.066-109.35-107.457 0-59.315 48.952-107.457 109.35-107.457 60.44 0 109.319 48.1 109.319 107.457 0 59.392-48.878 107.457-109.319 107.457z" fill="" p-id="3938"></path></svg>