<?xml version="1.0" standalone="no"?><!DOCTYPE svg PUBLIC "-//W3C//DTD SVG 1.1//EN" "http://www.w3.org/Graphics/SVG/1.1/DTD/svg11.dtd"><svg t="1513137549664" class="icon" style="" viewBox="0 0 1024 1024" version="1.1" xmlns="http://www.w3.org/2000/svg" p-id="5151" xmlns:xlink="http://www.w3.org/1999/xlink" width="128" height="128"><defs><style type="text/css"></style></defs><path d="M530.906605 877.838106l-32.014134-39.913035 187.116655-150.084227h95.542006c33.809013 0 61.314461-27.505447 61.314461-61.314461V257.96526c0-33.809013-27.505447-61.314461-61.314461-61.314461H243.24193c-33.809013 0-61.314461 27.505447-61.314461 61.314461v368.561123c0 33.809013 27.505447 61.314461 61.314461 61.314461h298.774711v51.16531h-298.774711c-62.021565 0-112.479771-50.458205-112.479771-112.479771V257.96526c0-62.021565 50.458205-112.479771 112.479771-112.479771h538.309202c62.021565 0 112.479771 50.458205 112.479771 112.479771v368.561123c0 62.021565-50.458205 112.479771-112.479771 112.479771h-77.558423l-173.086104 138.831952z" fill="#999999" p-id="5152"></path><path d="M369.43298 439.014732m-45.279252 0a45.279253 45.279253 0 1 0 90.558505 0 45.279253 45.279253 0 1 0-90.558505 0Z" fill="#999999" p-id="5153"></path><path d="M517.548366 439.014732m-45.279252 0a45.279253 45.279253 0 1 0 90.558505 0 45.279253 45.279253 0 1 0-90.558505 0Z" fill="#999999" p-id="5154"></path><path d="M665.664775 439.014732m-45.279252 0a45.279253 45.279253 0 1 0 90.558505 0 45.279253 45.279253 0 1 0-90.558505 0Z" fill="#999999" p-id="5155"></path></svg>