<?xml version="1.0" standalone="no"?><!DOCTYPE svg PUBLIC "-//W3C//DTD SVG 1.1//EN" "http://www.w3.org/Graphics/SVG/1.1/DTD/svg11.dtd"><svg t="1535171519675" class="icon" style="" viewBox="0 0 1024 1024" version="1.1" xmlns="http://www.w3.org/2000/svg" p-id="4188" xmlns:xlink="http://www.w3.org/1999/xlink" width="200" height="200"><defs><style type="text/css"></style></defs><path d="M573.710992 847.376327 446.507892 847.376327 446.507892 529.379832 128.508327 529.379832l0 254.394944c0 70.25304 56.954153 127.199007 127.20003 127.199007l508.800122 0c70.243831 0 127.194914-56.944943 127.194914-127.199007L891.703393 529.379832l-317.992401 0L573.710992 847.376327 573.710992 847.376327zM859.907223 320.000128 160.310637 320.000128c-52.683896 0-95.399767 42.724057-95.399767 95.408977 0 52.690036 42.715871 95.395674 95.399767 95.395674l699.596586 0c52.679803 0 95.40079-42.705638 95.40079-95.395674S912.588049 320.000128 859.907223 320.000128L859.907223 320.000128zM298.091654 299.395858l212.000392 0-0.037862-0.50142 0.148379 0-0.109494 0.50142 212.009601 0c73.197092 0 105.994056-42.74657 105.994056-95.414093 0-52.647057-32.796964-95.391581-105.994056-95.391581-68.51956 0-122.453936 37.019125-158.993131 79.917144-16.001439-11.333116-34.499745-18.321274-54.537104-18.321274-19.191084 0-36.941354 6.500041-52.534494 17.055444-36.455283-42.412972-90.095971-78.651314-157.945265-78.651314-73.17151 0-105.998149 42.736337-105.998149 95.391581C192.089411 256.649288 224.920144 299.395858 298.091654 299.395858L298.091654 299.395858zM722.101647 129.199571c24.161283 0 53.003168 5.53097 53.003168 31.803333 0 26.269293-28.841885 31.803333-53.003168 31.803333L601.707626 192.806237l-1.188058-2.659573C627.432521 158.713768 668.282904 129.199571 722.101647 129.199571L722.101647 129.199571zM298.091654 129.199571c52.705386 0 92.638887 28.306696 119.56105 58.644655l-2.276856 4.965082L298.091654 192.809307c-24.161283-0.004093-52.982702-5.538133-52.982702-31.807427C245.104859 134.730541 273.930371 129.199571 298.091654 129.199571L298.091654 129.199571zM298.091654 129.199571" p-id="4189" fill="#1296db"></path></svg>